<svg width="302" height="54" viewBox="0 0 302 54" fill="none" xmlns="http://www.w3.org/2000/svg">
<path d="M22.3337 44.8807L37.4158 1.46271H44.7634L25.8142 52.6502H20.5759L22.3337 44.8807ZM8.23608 1.46271L23.1775 44.8807L25.0408 52.6502H19.8025L0.888428 1.46271H8.23608ZM64.908 53.3533C62.2595 53.3533 59.8572 52.908 57.7009 52.0174C55.5681 51.1033 53.7283 49.826 52.1814 48.1854C50.658 46.5447 49.4861 44.5994 48.6658 42.3494C47.8455 40.0994 47.4353 37.6385 47.4353 34.9666V33.4901C47.4353 30.3963 47.8923 27.6424 48.8064 25.2283C49.7205 22.7908 50.9626 20.7283 52.533 19.0408C54.1033 17.3533 55.8845 16.076 57.8767 15.2088C59.8689 14.3416 61.9314 13.908 64.0642 13.908C66.783 13.908 69.1267 14.3768 71.0955 15.3143C73.0876 16.2518 74.7166 17.5643 75.9822 19.2518C77.2478 20.9158 78.1853 22.8846 78.7947 25.158C79.4041 27.408 79.7087 29.869 79.7087 32.5408V35.4588H51.3025V30.1502H73.2048V29.658C73.1111 27.9705 72.7595 26.3299 72.1501 24.7361C71.5642 23.1424 70.6267 21.8299 69.3376 20.7986C68.0486 19.7674 66.2908 19.2518 64.0642 19.2518C62.5876 19.2518 61.2283 19.5682 59.9861 20.201C58.7439 20.8104 57.6775 21.7244 56.7869 22.9432C55.8962 24.1619 55.2048 25.6502 54.7126 27.408C54.2205 29.1658 53.9744 31.1932 53.9744 33.4901V34.9666C53.9744 36.7713 54.2205 38.4705 54.7126 40.0643C55.2283 41.6346 55.9666 43.0174 56.9275 44.2127C57.9119 45.408 59.0955 46.3455 60.4783 47.0252C61.8845 47.7049 63.4783 48.0447 65.2595 48.0447C67.5564 48.0447 69.5017 47.576 71.0955 46.6385C72.6892 45.701 74.0837 44.4471 75.2791 42.8768L79.2166 46.0057C78.3962 47.2479 77.3533 48.4315 76.0876 49.5565C74.822 50.6815 73.2634 51.5955 71.4119 52.2986C69.5837 53.0018 67.4158 53.3533 64.908 53.3533ZM93.8064 20.5877V52.6502H87.3025V14.6111H93.6306L93.8064 20.5877ZM105.689 14.4002L105.654 20.4471C105.115 20.3299 104.599 20.2596 104.107 20.2361C103.638 20.1893 103.099 20.1658 102.49 20.1658C100.99 20.1658 99.6658 20.4002 98.5173 20.869C97.3689 21.3377 96.3962 21.994 95.5994 22.8377C94.8025 23.6815 94.1697 24.6893 93.7009 25.8611C93.2556 27.0096 92.9626 28.2752 92.822 29.658L90.9939 30.7127C90.9939 28.4158 91.2166 26.2596 91.6619 24.244C92.1306 22.2283 92.8455 20.4471 93.8064 18.9002C94.7673 17.3299 95.9861 16.1111 97.4626 15.244C98.9626 14.3533 100.744 13.908 102.806 13.908C103.275 13.908 103.814 13.9666 104.424 14.0838C105.033 14.1776 105.455 14.283 105.689 14.4002ZM118.767 14.6111V52.6502H112.228V14.6111H118.767ZM111.736 4.5213C111.736 3.46661 112.052 2.57599 112.685 1.84943C113.342 1.12286 114.302 0.759583 115.568 0.759583C116.81 0.759583 117.76 1.12286 118.416 1.84943C119.095 2.57599 119.435 3.46661 119.435 4.5213C119.435 5.52911 119.095 6.3963 118.416 7.12286C117.76 7.82599 116.81 8.17755 115.568 8.17755C114.302 8.17755 113.342 7.82599 112.685 7.12286C112.052 6.3963 111.736 5.52911 111.736 4.5213ZM169.568 1.46271V52.6502H162.748L136.978 13.1697V52.6502H130.193V1.46271H136.978L162.853 41.0486V1.46271H169.568ZM196.392 53.3533C193.744 53.3533 191.342 52.908 189.185 52.0174C187.052 51.1033 185.213 49.826 183.666 48.1854C182.142 46.5447 180.97 44.5994 180.15 42.3494C179.33 40.0994 178.92 37.6385 178.92 34.9666V33.4901C178.92 30.3963 179.377 27.6424 180.291 25.2283C181.205 22.7908 182.447 20.7283 184.017 19.0408C185.588 17.3533 187.369 16.076 189.361 15.2088C191.353 14.3416 193.416 13.908 195.549 13.908C198.267 13.908 200.611 14.3768 202.58 15.3143C204.572 16.2518 206.201 17.5643 207.467 19.2518C208.732 20.9158 209.67 22.8846 210.279 25.158C210.888 27.408 211.193 29.869 211.193 32.5408V35.4588H182.787V30.1502H204.689V29.658C204.595 27.9705 204.244 26.3299 203.635 24.7361C203.049 23.1424 202.111 21.8299 200.822 20.7986C199.533 19.7674 197.775 19.2518 195.549 19.2518C194.072 19.2518 192.713 19.5682 191.47 20.201C190.228 20.8104 189.162 21.7244 188.271 22.9432C187.381 24.1619 186.689 25.6502 186.197 27.408C185.705 29.1658 185.459 31.1932 185.459 33.4901V34.9666C185.459 36.7713 185.705 38.4705 186.197 40.0643C186.713 41.6346 187.451 43.0174 188.412 44.2127C189.396 45.408 190.58 46.3455 191.963 47.0252C193.369 47.7049 194.963 48.0447 196.744 48.0447C199.041 48.0447 200.986 47.576 202.58 46.6385C204.174 45.701 205.568 44.4471 206.763 42.8768L210.701 46.0057C209.881 47.2479 208.838 48.4315 207.572 49.5565C206.306 50.6815 204.748 51.5955 202.896 52.2986C201.068 53.0018 198.9 53.3533 196.392 53.3533ZM228.42 45.9002L238.193 14.6111H242.482L241.638 20.8338L231.689 52.6502H227.506L228.42 45.9002ZM221.845 14.6111L230.177 46.2518L230.775 52.6502H226.381L215.342 14.6111H221.845ZM251.834 46.0057L259.779 14.6111H266.248L255.209 52.6502H250.849L251.834 46.0057ZM243.431 14.6111L252.994 45.3729L254.084 52.6502H249.935L239.705 20.7635L238.861 14.6111H243.431ZM295.076 42.5604C295.076 41.6229 294.865 40.7557 294.443 39.9588C294.045 39.1385 293.213 38.4002 291.947 37.744C290.705 37.0643 288.83 36.4783 286.322 35.9861C284.213 35.5408 282.302 35.0135 280.592 34.4041C278.904 33.7947 277.463 33.0565 276.267 32.1893C275.095 31.3221 274.193 30.3026 273.56 29.1307C272.927 27.9588 272.611 26.5877 272.611 25.0174C272.611 23.5174 272.939 22.0994 273.595 20.7635C274.275 19.4276 275.224 18.244 276.443 17.2127C277.685 16.1815 279.174 15.3729 280.908 14.7869C282.642 14.201 284.576 13.908 286.709 13.908C289.756 13.908 292.357 14.4471 294.513 15.5252C296.67 16.6033 298.322 18.0447 299.47 19.8494C300.619 21.6307 301.193 23.6111 301.193 25.7908H294.689C294.689 24.7361 294.373 23.7166 293.74 22.7322C293.131 21.7244 292.228 20.8924 291.033 20.2361C289.861 19.5799 288.42 19.2518 286.709 19.2518C284.904 19.2518 283.439 19.533 282.314 20.0955C281.213 20.6346 280.404 21.326 279.888 22.1697C279.396 23.0135 279.15 23.9041 279.15 24.8416C279.15 25.5447 279.267 26.1776 279.502 26.7401C279.76 27.2791 280.205 27.783 280.838 28.2518C281.47 28.6971 282.361 29.119 283.51 29.5174C284.658 29.9158 286.123 30.3143 287.904 30.7127C291.021 31.4158 293.588 32.2596 295.603 33.244C297.619 34.2283 299.119 35.4354 300.103 36.8651C301.088 38.2947 301.58 40.0291 301.58 42.0682C301.58 43.7322 301.228 45.2557 300.525 46.6385C299.845 48.0213 298.849 49.2166 297.537 50.2244C296.248 51.2088 294.701 51.9822 292.896 52.5447C291.115 53.0838 289.111 53.3533 286.885 53.3533C283.533 53.3533 280.697 52.7557 278.377 51.5604C276.056 50.3651 274.299 48.8182 273.103 46.9197C271.908 45.0213 271.31 43.0174 271.31 40.908H277.849C277.943 42.6893 278.459 44.1072 279.396 45.1619C280.334 46.1932 281.482 46.9315 282.842 47.3768C284.201 47.7986 285.549 48.0096 286.885 48.0096C288.666 48.0096 290.154 47.7752 291.349 47.3065C292.568 46.8377 293.494 46.1932 294.127 45.3729C294.76 44.5526 295.076 43.6151 295.076 42.5604Z" fill="#FF0000"/>
<path d="M22.3337 44.8807L21.3891 44.5525L21.3707 44.6054L21.3584 44.66L22.3337 44.8807ZM37.4158 1.46271V0.462708H36.7045L36.4711 1.13457L37.4158 1.46271ZM44.7634 1.46271L45.7012 1.80988L46.1999 0.462708H44.7634V1.46271ZM25.8142 52.6502V53.6502H26.5103L26.752 52.9974L25.8142 52.6502ZM20.5759 52.6502L19.6006 52.4295L19.3244 53.6502H20.5759V52.6502ZM8.23608 1.46271L9.18166 1.13731L8.94951 0.462708H8.23608V1.46271ZM23.1775 44.8807L24.1499 44.6475L24.1387 44.6007L24.1231 44.5553L23.1775 44.8807ZM25.0408 52.6502V53.6502H26.3089L26.0132 52.417L25.0408 52.6502ZM19.8025 52.6502L18.8645 52.9968L19.1059 53.6502H19.8025V52.6502ZM0.888428 1.46271V0.462708H-0.547161L-0.049585 1.80931L0.888428 1.46271ZM23.2784 45.2088L38.3604 1.79084L36.4711 1.13457L21.3891 44.5525L23.2784 45.2088ZM37.4158 2.46271H44.7634V0.462708H37.4158V2.46271ZM43.8256 1.11554L24.8764 52.303L26.752 52.9974L45.7012 1.80988L43.8256 1.11554ZM25.8142 51.6502H20.5759V53.6502H25.8142V51.6502ZM21.5513 52.8709L23.3091 45.1013L21.3584 44.66L19.6006 52.4295L21.5513 52.8709ZM7.29051 1.78811L22.2319 45.2061L24.1231 44.5553L9.18166 1.13731L7.29051 1.78811ZM22.2051 45.1139L24.0683 52.8834L26.0132 52.417L24.1499 44.6475L22.2051 45.1139ZM25.0408 51.6502H19.8025V53.6502H25.0408V51.6502ZM20.7405 52.3036L1.82644 1.11611L-0.049585 1.80931L18.8645 52.9968L20.7405 52.3036ZM0.888428 2.46271H8.23608V0.462708H0.888428V2.46271ZM57.7009 52.0174L57.307 52.9366L57.3192 52.9417L57.7009 52.0174ZM52.1814 48.1854L51.4486 48.8658L51.4538 48.8714L52.1814 48.1854ZM48.8064 25.2283L49.7416 25.5824L49.7427 25.5795L48.8064 25.2283ZM71.0955 15.3143L70.6655 16.2171L70.6697 16.2191L71.0955 15.3143ZM75.9822 19.2518L75.1822 19.8518L75.1862 19.8571L75.9822 19.2518ZM78.7947 25.158L77.8288 25.4169L77.8295 25.4194L78.7947 25.158ZM79.7087 35.4588V36.4588H80.7087V35.4588H79.7087ZM51.3025 35.4588H50.3025V36.4588H51.3025V35.4588ZM51.3025 30.1502V29.1502H50.3025V30.1502H51.3025ZM73.2048 30.1502V31.1502H74.2048V30.1502H73.2048ZM73.2048 29.658H74.2048V29.6303L74.2033 29.6026L73.2048 29.658ZM72.1501 24.7361L71.2115 25.0812L71.2161 25.0933L72.1501 24.7361ZM59.9861 20.201L60.4265 21.0988L60.4333 21.0955L60.44 21.092L59.9861 20.201ZM54.7126 40.0643L53.7572 40.3593L53.7598 40.3678L53.7626 40.3762L54.7126 40.0643ZM56.9275 44.2127L56.1481 44.8393L56.1556 44.8484L56.9275 44.2127ZM60.4783 47.0252L60.0371 47.9227L60.0431 47.9256L60.4783 47.0252ZM75.2791 42.8768L75.9012 42.0939L75.1018 41.4586L74.4833 42.2711L75.2791 42.8768ZM79.2166 46.0057L80.051 46.5567L80.5557 45.7925L79.8387 45.2228L79.2166 46.0057ZM71.4119 52.2986L71.0569 51.3638L71.0529 51.3653L71.4119 52.2986ZM64.908 52.3533C62.3729 52.3533 60.1026 51.9274 58.0827 51.0931L57.3192 52.9417C59.6118 53.8886 62.1462 54.3533 64.908 54.3533V52.3533ZM58.0948 51.0983C56.0843 50.2366 54.359 49.0373 52.909 47.4994L51.4538 48.8714C53.0975 50.6147 55.0519 51.9701 57.307 52.9365L58.0948 51.0983ZM52.9142 47.5049C51.4877 45.9687 50.3831 44.1404 49.6053 42.0069L47.7263 42.692C48.589 45.0584 49.8282 47.1208 51.4486 48.8658L52.9142 47.5049ZM49.6053 42.0069C48.8293 39.8786 48.4353 37.5351 48.4353 34.9666H46.4353C46.4353 37.7419 46.8616 40.3202 47.7263 42.692L49.6053 42.0069ZM48.4353 34.9666V33.4901H46.4353V34.9666H48.4353ZM48.4353 33.4901C48.4353 30.4939 48.878 27.8634 49.7416 25.5824L47.8712 24.8742C46.9067 27.4214 46.4353 30.2987 46.4353 33.4901H48.4353ZM49.7427 25.5795C50.6168 23.2485 51.7945 21.3023 53.265 19.7221L51.8009 18.3596C50.1308 20.1543 48.8241 22.3331 47.8701 24.8772L49.7427 25.5795ZM53.265 19.7221C54.7475 18.1289 56.4172 16.9347 58.2758 16.1257L57.4776 14.2919C55.3518 15.2172 53.459 16.5777 51.8009 18.3596L53.265 19.7221ZM58.2758 16.1257C60.1445 15.3123 62.0714 14.908 64.0642 14.908V12.908C61.7914 12.908 59.5933 13.371 57.4776 14.2919L58.2758 16.1257ZM64.0642 14.908C66.67 14.908 68.86 15.3574 70.6655 16.2171L71.5254 14.4114C69.3934 13.3962 66.8959 12.908 64.0642 12.908V14.908ZM70.6697 16.2191C72.5208 17.0902 74.0189 18.3007 75.1822 19.8518L76.7822 18.6518C75.4142 16.8278 73.6545 15.4133 71.5213 14.4095L70.6697 16.2191ZM75.1862 19.8571C76.364 21.4056 77.2488 23.2532 77.8288 25.4169L79.7606 24.8991C79.1218 22.516 78.1316 20.426 76.7781 18.6464L75.1862 19.8571ZM77.8295 25.4194C78.4127 27.5728 78.7087 29.9446 78.7087 32.5408H80.7087C80.7087 29.7933 80.3954 27.2432 79.7599 24.8966L77.8295 25.4194ZM78.7087 32.5408V35.4588H80.7087V32.5408H78.7087ZM79.7087 34.4588H51.3025V36.4588H79.7087V34.4588ZM52.3025 35.4588V30.1502H50.3025V35.4588H52.3025ZM51.3025 31.1502H73.2048V29.1502H51.3025V31.1502ZM74.2048 30.1502V29.658H72.2048V30.1502H74.2048ZM74.2033 29.6026C74.1038 27.8108 73.7302 26.0684 73.0842 24.379L71.2161 25.0933C71.7889 26.5914 72.1184 28.1303 72.2064 29.7135L74.2033 29.6026ZM73.0887 24.3911C72.4417 22.6313 71.398 21.1663 69.9623 20.0178L68.713 21.5795C69.8554 22.4935 70.6867 23.6535 71.2116 25.0812L73.0887 24.3911ZM69.9623 20.0178C68.4428 18.8022 66.4389 18.2518 64.0642 18.2518V20.2518C66.1427 20.2518 67.6543 20.7326 68.713 21.5795L69.9623 20.0178ZM64.0642 18.2518C62.4395 18.2518 60.9232 18.6013 59.5322 19.3099L60.44 21.092C61.5333 20.5351 62.7358 20.2518 64.0642 20.2518V18.2518ZM59.5457 19.3032C58.1451 19.9903 56.9568 21.0158 55.9795 22.3532L57.5943 23.5332C58.3982 22.4331 59.3427 21.6305 60.4265 21.0988L59.5457 19.3032ZM55.9795 22.3532C55.0052 23.6864 54.2676 25.2888 53.7497 27.1384L55.6756 27.6777C56.1421 26.0117 56.7873 24.6375 57.5943 23.5332L55.9795 22.3532ZM53.7497 27.1384C53.2275 29.0032 52.9744 31.1244 52.9744 33.4901H54.9744C54.9744 31.262 55.2134 29.3285 55.6756 27.6777L53.7497 27.1384ZM52.9744 33.4901V34.9666H54.9744V33.4901H52.9744ZM52.9744 34.9666C52.9744 36.8632 53.2332 38.6625 53.7572 40.3593L55.6681 39.7692C55.2078 38.2785 54.9744 36.6794 54.9744 34.9666H52.9744ZM53.7626 40.3762C54.3128 42.0519 55.1062 43.5432 56.1481 44.8393L57.7069 43.5862C56.827 42.4916 56.1438 41.2173 55.6627 39.7523L53.7626 40.3762ZM56.1556 44.8484C57.2299 46.1529 58.5261 47.1799 60.0372 47.9227L60.9194 46.1278C59.6649 45.5111 58.5939 44.6631 57.6994 43.577L56.1556 44.8484ZM60.0431 47.9256C61.6029 48.6795 63.3488 49.0447 65.2595 49.0447V47.0447C63.6078 47.0447 62.1661 46.7303 60.9134 46.1249L60.0431 47.9256ZM65.2595 49.0447C67.6919 49.0447 69.8219 48.5478 71.6025 47.5004L70.5884 45.7766C69.1815 46.6042 67.4209 47.0447 65.2595 47.0447V49.0447ZM71.6025 47.5004C73.3156 46.4927 74.8061 45.1491 76.0748 43.4825L74.4833 42.2711C73.3614 43.7451 72.0629 44.9093 70.5884 45.7766L71.6025 47.5004ZM74.6569 43.6597L78.5944 46.7886L79.8387 45.2228L75.9012 42.0939L74.6569 43.6597ZM78.3821 45.4546C77.6157 46.6151 76.6327 47.7341 75.4233 48.809L76.752 50.3039C78.0739 49.1289 79.1767 47.8806 80.051 46.5567L78.3821 45.4546ZM75.4233 48.809C74.2625 49.8408 72.8137 50.6966 71.0569 51.3638L71.7669 53.2335C73.7132 52.4944 75.3815 51.5221 76.752 50.3039L75.4233 48.809ZM71.0529 51.3653C69.3664 52.0139 67.3259 52.3533 64.908 52.3533V54.3533C67.5057 54.3533 69.8011 53.9896 71.7708 53.232L71.0529 51.3653ZM93.8064 20.5877H94.8064V20.573L94.806 20.5583L93.8064 20.5877ZM93.8064 52.6502V53.6502H94.8064V52.6502H93.8064ZM87.3025 52.6502H86.3025V53.6502H87.3025V52.6502ZM87.3025 14.6111V13.6111H86.3025V14.6111H87.3025ZM93.6306 14.6111L94.6302 14.5817L94.6016 13.6111H93.6306V14.6111ZM105.689 14.4002L106.689 14.406L106.693 13.784L106.136 13.5058L105.689 14.4002ZM105.654 20.4471L105.442 21.4243L106.647 21.6863L106.654 20.4529L105.654 20.4471ZM104.107 20.2361L104.008 21.2312L104.034 21.2338L104.06 21.235L104.107 20.2361ZM93.7009 25.8611L92.7724 25.4897L92.7686 25.4996L93.7009 25.8611ZM92.822 29.658L93.3217 30.5242L93.7651 30.2684L93.8169 29.7592L92.822 29.658ZM90.9939 30.7127H89.9939V32.4441L91.4936 31.5789L90.9939 30.7127ZM91.6619 24.244L90.6878 24.0174L90.6854 24.0282L91.6619 24.244ZM93.8064 18.9002L94.6559 19.4279L94.6594 19.4222L93.8064 18.9002ZM97.4626 15.244L97.9691 16.1063L97.9732 16.1038L97.4626 15.244ZM104.424 14.0838L104.235 15.0658L104.253 15.0693L104.272 15.0722L104.424 14.0838ZM92.8064 20.5877V52.6502H94.8064V20.5877H92.8064ZM93.8064 51.6502H87.3025V53.6502H93.8064V51.6502ZM88.3025 52.6502V14.6111H86.3025V52.6502H88.3025ZM87.3025 15.6111H93.6306V13.6111H87.3025V15.6111ZM92.6311 14.6405L92.8068 20.6171L94.806 20.5583L94.6302 14.5817L92.6311 14.6405ZM104.689 14.3944L104.654 20.4413L106.654 20.4529L106.689 14.406L104.689 14.3944ZM105.866 19.4699C105.279 19.3423 104.709 19.2636 104.155 19.2373L104.06 21.235C104.49 21.2555 104.95 21.3175 105.442 21.4243L105.866 19.4699ZM104.207 19.2411C103.697 19.1901 103.124 19.1658 102.49 19.1658V21.1658C103.075 21.1658 103.58 21.1884 104.008 21.2312L104.207 19.2411ZM102.49 19.1658C100.887 19.1658 99.4301 19.4163 98.1394 19.9431L98.8952 21.7948C99.9014 21.3841 101.093 21.1658 102.49 21.1658V19.1658ZM98.1394 19.9431C96.8681 20.462 95.7738 21.1966 94.8724 22.1511L96.3264 23.5243C97.0186 22.7913 97.8697 22.2134 98.8952 21.7948L98.1394 19.9431ZM94.8724 22.1511C93.9818 23.094 93.2838 24.2113 92.7725 25.4898L94.6294 26.2325C95.0555 25.1672 95.6232 24.2689 96.3264 23.5243L94.8724 22.1511ZM92.7686 25.4996C92.287 26.7416 91.9757 28.0961 91.8272 29.5568L93.8169 29.7592C93.9496 28.4543 94.2242 27.2776 94.6333 26.2227L92.7686 25.4996ZM92.3223 28.7918L90.4942 29.8465L91.4936 31.5789L93.3217 30.5242L92.3223 28.7918ZM91.9939 30.7127C91.9939 28.4804 92.2103 26.397 92.6383 24.4597L90.6854 24.0282C90.2228 26.1221 89.9939 28.3513 89.9939 30.7127H91.9939ZM92.6359 24.4705C93.0832 22.5471 93.7599 20.8701 94.6558 19.4279L92.957 18.3725C91.931 20.024 91.178 21.9096 90.6879 24.0174L92.6359 24.4705ZM94.6594 19.4222C95.5411 17.9812 96.6448 16.884 97.9691 16.1062L96.9562 14.3817C95.3274 15.3383 93.9935 16.6785 92.9534 18.3782L94.6594 19.4222ZM97.9732 16.1038C99.2926 15.3204 100.891 14.908 102.806 14.908V12.908C100.597 12.908 98.6327 13.3862 96.9521 14.3841L97.9732 16.1038ZM102.806 14.908C103.195 14.908 103.669 14.957 104.235 15.0658L104.612 13.1018C103.959 12.9762 103.355 12.908 102.806 12.908V14.908ZM104.272 15.0722C104.879 15.1657 105.161 15.2543 105.242 15.2946L106.136 13.5058C105.748 13.3117 105.187 13.1894 104.576 13.0954L104.272 15.0722ZM118.767 14.6111H119.767V13.6111H118.767V14.6111ZM118.767 52.6502V53.6502H119.767V52.6502H118.767ZM112.228 52.6502H111.228V53.6502H112.228V52.6502ZM112.228 14.6111V13.6111H111.228V14.6111H112.228ZM112.685 1.84943L111.943 1.17914L111.937 1.18584L111.931 1.19265L112.685 1.84943ZM118.416 1.84943L117.674 2.51971L117.68 2.5262L117.686 2.53258L118.416 1.84943ZM118.416 7.12286L117.686 6.43971L117.685 6.44055L118.416 7.12286ZM112.685 7.12286L111.931 7.77964L111.943 7.79261L111.954 7.80518L112.685 7.12286ZM117.767 14.6111V52.6502H119.767V14.6111H117.767ZM118.767 51.6502H112.228V53.6502H118.767V51.6502ZM113.228 52.6502V14.6111H111.228V52.6502H113.228ZM112.228 15.6111H118.767V13.6111H112.228V15.6111ZM112.736 4.5213C112.736 3.68342 112.981 3.03296 113.439 2.50621L111.931 1.19265C111.124 2.11902 110.736 3.2498 110.736 4.5213H112.736ZM113.427 2.51971C113.842 2.06047 114.497 1.75958 115.568 1.75958V-0.240417C114.108 -0.240417 112.841 0.185257 111.943 1.17914L113.427 2.51971ZM115.568 1.75958C116.609 1.75958 117.255 2.0566 117.674 2.51971L119.158 1.17914C118.264 0.189123 117.012 -0.240417 115.568 -0.240417V1.75958ZM117.686 2.53258C118.181 3.06201 118.435 3.70356 118.435 4.5213H120.435C120.435 3.22967 120.01 2.08997 119.146 1.16627L117.686 2.53258ZM118.435 4.5213C118.435 5.27908 118.189 5.90106 117.686 6.43971L119.146 7.80602C120.002 6.89154 120.435 5.77915 120.435 4.5213H118.435ZM117.685 6.44055C117.269 6.8861 116.618 7.17755 115.568 7.17755V9.17755C117.002 9.17755 118.25 8.76588 119.147 7.80518L117.685 6.44055ZM115.568 7.17755C114.488 7.17755 113.829 6.88243 113.416 6.44055L111.954 7.80518C112.854 8.76954 114.117 9.17755 115.568 9.17755V7.17755ZM113.439 6.46608C112.973 5.93052 112.736 5.29979 112.736 4.5213H110.736C110.736 5.75843 111.132 6.86209 111.931 7.77964L113.439 6.46608ZM169.568 1.46271H170.568V0.462708H169.568V1.46271ZM169.568 52.6502V53.6502H170.568V52.6502H169.568ZM162.748 52.6502L161.91 53.1968L162.206 53.6502H162.748V52.6502ZM136.978 13.1697L137.816 12.6232L135.978 9.80814V13.1697H136.978ZM136.978 52.6502V53.6502H137.978V52.6502H136.978ZM130.193 52.6502H129.193V53.6502H130.193V52.6502ZM130.193 1.46271V0.462708H129.193V1.46271H130.193ZM136.978 1.46271L137.815 0.915578L137.519 0.462708H136.978V1.46271ZM162.853 41.0486L162.016 41.5958L163.853 44.4063V41.0486H162.853ZM162.853 1.46271V0.462708H161.853V1.46271H162.853ZM168.568 1.46271V52.6502H170.568V1.46271H168.568ZM169.568 51.6502H162.748V53.6502H169.568V51.6502ZM163.585 52.1036L137.816 12.6232L136.141 13.7163L161.91 53.1968L163.585 52.1036ZM135.978 13.1697V52.6502H137.978V13.1697H135.978ZM136.978 51.6502H130.193V53.6502H136.978V51.6502ZM131.193 52.6502V1.46271H129.193V52.6502H131.193ZM130.193 2.46271H136.978V0.462708H130.193V2.46271ZM136.141 2.00984L162.016 41.5958L163.69 40.5015L137.815 0.915578L136.141 2.00984ZM163.853 41.0486V1.46271H161.853V41.0486H163.853ZM162.853 2.46271H169.568V0.462708H162.853V2.46271ZM189.185 52.0174L188.791 52.9366L188.804 52.9417L189.185 52.0174ZM183.666 48.1854L182.933 48.8658L182.938 48.8714L183.666 48.1854ZM180.291 25.2283L181.226 25.5824L181.227 25.5795L180.291 25.2283ZM202.58 15.3143L202.15 16.2171L202.154 16.2191L202.58 15.3143ZM207.467 19.2518L206.667 19.8518L206.671 19.8571L207.467 19.2518ZM210.279 25.158L209.313 25.4169L209.314 25.4194L210.279 25.158ZM211.193 35.4588V36.4588H212.193V35.4588H211.193ZM182.787 35.4588H181.787V36.4588H182.787V35.4588ZM182.787 30.1502V29.1502H181.787V30.1502H182.787ZM204.689 30.1502V31.1502H205.689V30.1502H204.689ZM204.689 29.658H205.689V29.6303L205.688 29.6026L204.689 29.658ZM203.635 24.7361L202.696 25.0812L202.7 25.0933L203.635 24.7361ZM191.47 20.201L191.911 21.0988L191.918 21.0955L191.924 21.092L191.47 20.201ZM186.197 40.0643L185.242 40.3593L185.244 40.3678L185.247 40.3762L186.197 40.0643ZM188.412 44.2127L187.632 44.8393L187.64 44.8484L188.412 44.2127ZM191.963 47.0252L191.522 47.9227L191.527 47.9256L191.963 47.0252ZM206.763 42.8768L207.386 42.0939L206.586 41.4586L205.968 42.2711L206.763 42.8768ZM210.701 46.0057L211.535 46.5567L212.04 45.7925L211.323 45.2228L210.701 46.0057ZM202.896 52.2986L202.541 51.3638L202.537 51.3653L202.896 52.2986ZM196.392 52.3533C193.857 52.3533 191.587 51.9274 189.567 51.0931L188.804 52.9417C191.096 53.8886 193.631 54.3533 196.392 54.3533V52.3533ZM189.579 51.0983C187.569 50.2366 185.843 49.0373 184.393 47.4994L182.938 48.8714C184.582 50.6147 186.536 51.9701 188.791 52.9365L189.579 51.0983ZM184.399 47.5049C182.972 45.9687 181.868 44.1404 181.09 42.0069L179.211 42.692C180.073 45.0584 181.313 47.1208 182.933 48.8658L184.399 47.5049ZM181.09 42.0069C180.314 39.8786 179.92 37.5351 179.92 34.9666H177.92C177.92 37.7419 178.346 40.3202 179.211 42.692L181.09 42.0069ZM179.92 34.9666V33.4901H177.92V34.9666H179.92ZM179.92 33.4901C179.92 30.4939 180.362 27.8634 181.226 25.5824L179.356 24.8742C178.391 27.4214 177.92 30.2987 177.92 33.4901H179.92ZM181.227 25.5795C182.101 23.2485 183.279 21.3023 184.749 19.7221L183.285 18.3596C181.615 20.1543 180.308 22.3331 179.354 24.8772L181.227 25.5795ZM184.749 19.7221C186.232 18.1289 187.902 16.9347 189.76 16.1257L188.962 14.2919C186.836 15.2172 184.943 16.5777 183.285 18.3596L184.749 19.7221ZM189.76 16.1257C191.629 15.3123 193.556 14.908 195.549 14.908V12.908C193.276 12.908 191.078 13.371 188.962 14.2919L189.76 16.1257ZM195.549 14.908C198.154 14.908 200.344 15.3574 202.15 16.2171L203.01 14.4114C200.878 13.3962 198.38 12.908 195.549 12.908V14.908ZM202.154 16.2191C204.005 17.0902 205.503 18.3007 206.667 19.8518L208.267 18.6518C206.899 16.8278 205.139 15.4133 203.006 14.4095L202.154 16.2191ZM206.671 19.8571C207.848 21.4056 208.733 23.2532 209.313 25.4169L211.245 24.8991C210.606 22.516 209.616 20.426 208.262 18.6464L206.671 19.8571ZM209.314 25.4194C209.897 27.5728 210.193 29.9446 210.193 32.5408H212.193C212.193 29.7933 211.88 27.2432 211.244 24.8966L209.314 25.4194ZM210.193 32.5408V35.4588H212.193V32.5408H210.193ZM211.193 34.4588H182.787V36.4588H211.193V34.4588ZM183.787 35.4588V30.1502H181.787V35.4588H183.787ZM182.787 31.1502H204.689V29.1502H182.787V31.1502ZM205.689 30.1502V29.658H203.689V30.1502H205.689ZM205.688 29.6026C205.588 27.8108 205.215 26.0684 204.569 24.379L202.7 25.0933C203.273 26.5914 203.603 28.1303 203.691 29.7135L205.688 29.6026ZM204.573 24.3911C203.926 22.6313 202.882 21.1663 201.447 20.0178L200.197 21.5795C201.34 22.4935 202.171 23.6535 202.696 25.0812L204.573 24.3911ZM201.447 20.0178C199.927 18.8022 197.923 18.2518 195.549 18.2518V20.2518C197.627 20.2518 199.139 20.7326 200.197 21.5795L201.447 20.0178ZM195.549 18.2518C193.924 18.2518 192.408 18.6013 191.017 19.3099L191.924 21.092C193.018 20.5351 194.22 20.2518 195.549 20.2518V18.2518ZM191.03 19.3032C189.629 19.9903 188.441 21.0158 187.464 22.3532L189.079 23.5332C189.883 22.4331 190.827 21.6305 191.911 21.0988L191.03 19.3032ZM187.464 22.3532C186.49 23.6864 185.752 25.2888 185.234 27.1384L187.16 27.6777C187.626 26.0117 188.272 24.6375 189.079 23.5332L187.464 22.3532ZM185.234 27.1384C184.712 29.0032 184.459 31.1244 184.459 33.4901H186.459C186.459 31.262 186.698 29.3285 187.16 27.6777L185.234 27.1384ZM184.459 33.4901V34.9666H186.459V33.4901H184.459ZM184.459 34.9666C184.459 36.8632 184.718 38.6625 185.242 40.3593L187.152 39.7692C186.692 38.2785 186.459 36.6794 186.459 34.9666H184.459ZM185.247 40.3762C185.797 42.0519 186.591 43.5432 187.632 44.8393L189.191 43.5862C188.311 42.4916 187.628 41.2173 187.147 39.7523L185.247 40.3762ZM187.64 44.8484C188.714 46.1529 190.01 47.1799 191.522 47.9227L192.404 46.1278C191.149 45.5111 190.078 44.6631 189.184 43.577L187.64 44.8484ZM191.527 47.9256C193.087 48.6795 194.833 49.0447 196.744 49.0447V47.0447C195.092 47.0447 193.65 46.7303 192.398 46.1249L191.527 47.9256ZM196.744 49.0447C199.176 49.0447 201.306 48.5478 203.087 47.5004L202.073 45.7766C200.666 46.6042 198.905 47.0447 196.744 47.0447V49.0447ZM203.087 47.5004C204.8 46.4927 206.29 45.1491 207.559 43.4825L205.968 42.2711C204.846 43.7451 203.547 44.9093 202.073 45.7766L203.087 47.5004ZM206.141 43.6597L210.079 46.7886L211.323 45.2228L207.386 42.0939L206.141 43.6597ZM209.866 45.4546C209.1 46.6151 208.117 47.7341 206.908 48.809L208.236 50.3039C209.558 49.1289 210.661 47.8806 211.535 46.5567L209.866 45.4546ZM206.908 48.809C205.747 49.8408 204.298 50.6966 202.541 51.3638L203.251 53.2335C205.198 52.4944 206.866 51.5221 208.236 50.3039L206.908 48.809ZM202.537 51.3653C200.851 52.0139 198.81 52.3533 196.392 52.3533V54.3533C198.99 54.3533 201.285 53.9896 203.255 53.232L202.537 51.3653ZM228.42 45.9002L227.465 45.6021L227.44 45.6825L227.429 45.766L228.42 45.9002ZM238.193 14.6111V13.6111H237.458L237.239 14.313L238.193 14.6111ZM242.482 14.6111L243.473 14.7455L243.627 13.6111H242.482V14.6111ZM241.638 20.8338L242.593 21.1323L242.618 21.0518L242.629 20.9682L241.638 20.8338ZM231.689 52.6502V53.6502H232.424L232.644 52.9487L231.689 52.6502ZM227.506 52.6502L226.515 52.516L226.361 53.6502H227.506V52.6502ZM221.845 14.6111L222.812 14.3565L222.616 13.6111H221.845V14.6111ZM230.177 46.2518L231.173 46.1588L231.165 46.0768L231.145 45.9971L230.177 46.2518ZM230.775 52.6502V53.6502H231.873L231.771 52.5572L230.775 52.6502ZM226.381 52.6502L225.42 52.9289L225.63 53.6502H226.381V52.6502ZM215.342 14.6111V13.6111H214.01L214.381 14.8898L215.342 14.6111ZM251.834 46.0057L250.864 45.7603L250.852 45.8092L250.845 45.8591L251.834 46.0057ZM259.779 14.6111V13.6111H259.001L258.81 14.3658L259.779 14.6111ZM266.248 14.6111L267.208 14.8898L267.579 13.6111H266.248V14.6111ZM255.209 52.6502V53.6502H255.96L256.169 52.9289L255.209 52.6502ZM250.849 52.6502L249.86 52.5037L249.69 53.6502H250.849V52.6502ZM243.431 14.6111L244.386 14.3143L244.168 13.6111H243.431V14.6111ZM252.994 45.3729L253.983 45.2248L253.972 45.1491L253.949 45.076L252.994 45.3729ZM254.084 52.6502V53.6502H255.245L255.073 52.5021L254.084 52.6502ZM249.935 52.6502L248.983 52.9557L249.206 53.6502H249.935V52.6502ZM239.705 20.7635L238.714 20.8994L238.726 20.9859L238.753 21.069L239.705 20.7635ZM238.861 14.6111V13.6111H237.715L237.87 14.747L238.861 14.6111ZM229.374 46.1984L239.148 14.9093L237.239 14.313L227.465 45.6021L229.374 46.1984ZM238.193 15.6111H242.482V13.6111H238.193V15.6111ZM241.491 14.4768L240.647 20.6994L242.629 20.9682L243.473 14.7455L241.491 14.4768ZM240.684 20.5353L230.735 52.3518L232.644 52.9487L242.593 21.1323L240.684 20.5353ZM231.689 51.6502H227.506V53.6502H231.689V51.6502ZM228.497 52.7844L229.411 46.0344L227.429 45.766L226.515 52.516L228.497 52.7844ZM220.878 14.8658L229.21 46.5064L231.145 45.9971L222.812 14.3565L220.878 14.8658ZM229.182 46.3448L229.779 52.7432L231.771 52.5572L231.173 46.1588L229.182 46.3448ZM230.775 51.6502H226.381V53.6502H230.775V51.6502ZM227.341 52.3715L216.302 14.3324L214.381 14.8898L225.42 52.9289L227.341 52.3715ZM215.342 15.6111H221.845V13.6111H215.342V15.6111ZM252.803 46.251L260.748 14.8565L258.81 14.3658L250.864 45.7603L252.803 46.251ZM259.779 15.6111H266.248V13.6111H259.779V15.6111ZM265.287 14.3324L254.248 52.3715L256.169 52.9289L267.208 14.8898L265.287 14.3324ZM255.209 51.6502H250.849V53.6502H255.209V51.6502ZM251.839 52.7968L252.823 46.1522L250.845 45.8591L249.86 52.5037L251.839 52.7968ZM242.476 14.908L252.039 45.6697L253.949 45.076L244.386 14.3143L242.476 14.908ZM252.005 45.521L253.095 52.7983L255.073 52.5021L253.983 45.2248L252.005 45.521ZM254.084 51.6502H249.935V53.6502H254.084V51.6502ZM250.887 52.3447L240.657 20.458L238.753 21.069L248.983 52.9557L250.887 52.3447ZM240.696 20.6276L239.852 14.4753L237.87 14.747L238.714 20.8994L240.696 20.6276ZM238.861 15.6111H243.431V13.6111H238.861V15.6111ZM294.443 39.9588L293.544 40.3957L293.551 40.4113L293.559 40.4267L294.443 39.9588ZM291.947 37.744L291.467 38.6212L291.477 38.6266L291.487 38.6317L291.947 37.744ZM286.322 35.9861L286.115 36.9646L286.122 36.9661L286.129 36.9674L286.322 35.9861ZM280.592 34.4041L280.252 35.3447L280.256 35.3461L280.592 34.4041ZM276.267 32.1893L275.672 32.9931L275.68 32.9987L276.267 32.1893ZM273.595 20.7635L272.704 20.31L272.698 20.3226L273.595 20.7635ZM276.443 17.2127L275.804 16.4433L275.797 16.4493L276.443 17.2127ZM299.47 19.8494L298.627 20.3863L298.63 20.3913L299.47 19.8494ZM301.193 25.7908V26.7908H302.193V25.7908H301.193ZM294.689 25.7908H293.689V26.7908H294.689V25.7908ZM293.74 22.7322L292.884 23.2497L292.891 23.2614L292.899 23.273L293.74 22.7322ZM291.033 20.2361L290.544 21.1087L290.552 21.1127L291.033 20.2361ZM282.314 20.0955L282.754 20.9938L282.761 20.9899L282.314 20.0955ZM279.888 22.1697L279.035 21.6483L279.03 21.657L279.025 21.6659L279.888 22.1697ZM279.502 26.7401L278.579 27.1247L278.589 27.1484L278.6 27.1715L279.502 26.7401ZM280.838 28.2518L280.242 29.0553L280.252 29.0626L280.262 29.0696L280.838 28.2518ZM287.904 30.7127L288.124 29.7372L288.122 29.7368L287.904 30.7127ZM300.525 46.6385L299.634 46.1852L299.628 46.1974L300.525 46.6385ZM297.537 50.2244L298.144 51.0192L298.146 51.0176L297.537 50.2244ZM292.896 52.5447L293.186 53.5019L293.194 53.4994L292.896 52.5447ZM271.31 40.908V39.908H270.31V40.908H271.31ZM277.849 40.908L278.848 40.8555L278.798 39.908H277.849V40.908ZM279.396 45.1619L278.649 45.8263L278.656 45.8346L279.396 45.1619ZM282.842 47.3768L282.53 48.3271L282.538 48.3295L282.545 48.3318L282.842 47.3768ZM291.349 47.3065L290.99 46.3731L290.984 46.3755L291.349 47.3065ZM296.076 42.5604C296.076 41.4665 295.828 40.4378 295.327 39.4909L293.559 40.4267C293.902 41.0736 294.076 41.7793 294.076 42.5604H296.076ZM295.343 39.5219C294.81 38.4262 293.764 37.5594 292.407 36.8562L291.487 38.6317C292.662 39.241 293.279 39.8508 293.544 40.3957L295.343 39.5219ZM292.427 36.8667C291.05 36.1132 289.056 35.5036 286.515 35.0049L286.129 36.9674C288.604 37.453 290.36 38.0153 291.467 38.6212L292.427 36.8667ZM286.529 35.0077C284.455 34.57 282.589 34.054 280.927 33.4621L280.256 35.3461C282.016 35.973 283.97 36.5117 286.115 36.9646L286.529 35.0077ZM280.931 33.4636C279.314 32.8795 277.96 32.1816 276.855 31.3798L275.68 32.9987C276.966 33.9313 278.494 34.71 280.252 35.3447L280.931 33.4636ZM276.862 31.3854C275.797 30.5972 274.997 29.6864 274.44 28.6555L272.68 29.6058C273.389 30.9187 274.394 32.047 275.672 32.9931L276.862 31.3854ZM274.44 28.6555C273.899 27.6537 273.611 26.4515 273.611 25.0174H271.611C271.611 26.7239 271.956 28.2639 272.68 29.6058L274.44 28.6555ZM273.611 25.0174C273.611 23.669 273.905 22.402 274.493 21.2044L272.698 20.3226C271.974 21.7968 271.611 23.3658 271.611 25.0174H273.611ZM274.487 21.2169C275.102 20.0072 275.965 18.9271 277.089 17.9761L275.797 16.4493C274.484 17.5609 273.448 18.8479 272.704 20.31L274.487 21.2169ZM277.082 17.9821C278.218 17.039 279.594 16.2862 281.228 15.7343L280.588 13.8395C278.753 14.4595 277.153 15.3239 275.804 16.4433L277.082 17.9821ZM281.228 15.7343C282.844 15.1884 284.667 14.908 286.709 14.908V12.908C284.485 12.908 282.441 13.2135 280.588 13.8395L281.228 15.7343ZM286.709 14.908C289.64 14.908 292.081 15.4268 294.066 16.4196L294.961 14.6308C292.634 13.4674 289.871 12.908 286.709 12.908V14.908ZM294.066 16.4196C296.081 17.4272 297.588 18.7532 298.627 20.3863L300.314 19.3125C299.056 17.3362 297.258 15.7794 294.961 14.6308L294.066 16.4196ZM298.63 20.3913C299.671 22.0062 300.193 23.7976 300.193 25.7908H302.193C302.193 23.4247 301.567 21.2551 300.311 19.3076L298.63 20.3913ZM301.193 24.7908H294.689V26.7908H301.193V24.7908ZM295.689 25.7908C295.689 24.5238 295.306 23.3189 294.581 22.1915L292.899 23.273C293.44 24.1144 293.689 24.9485 293.689 25.7908H295.689ZM294.596 22.2148C293.882 21.0341 292.839 20.087 291.514 19.3596L290.552 21.1127C291.617 21.6978 292.379 22.4148 292.884 23.2497L294.596 22.2148ZM291.522 19.3636C290.165 18.6039 288.545 18.2518 286.709 18.2518V20.2518C288.294 20.2518 289.557 20.5559 290.544 21.1087L291.522 19.3636ZM286.709 18.2518C284.812 18.2518 283.178 18.5457 281.867 19.2011L282.761 20.9899C283.701 20.5204 284.996 20.2518 286.709 20.2518V18.2518ZM281.875 19.1973C280.643 19.7999 279.671 20.6071 279.035 21.6483L280.742 22.6912C281.137 22.0449 281.782 21.4692 282.754 20.9937L281.875 19.1973ZM279.025 21.6659C278.447 22.6559 278.15 23.7195 278.15 24.8416H280.15C280.15 24.0888 280.345 23.3711 280.752 22.6736L279.025 21.6659ZM278.15 24.8416C278.15 25.6566 278.286 26.423 278.579 27.1247L280.425 26.3554C280.248 25.9321 280.15 25.4328 280.15 24.8416H278.15ZM278.6 27.1715C278.947 27.8971 279.519 28.5192 280.242 29.0553L281.433 27.4482C280.891 27.0468 280.572 26.6611 280.404 26.3086L278.6 27.1715ZM280.262 29.0696C281.002 29.59 281.989 30.0485 283.182 30.4622L283.837 28.5726C282.733 28.1895 281.939 27.8041 281.413 27.434L280.262 29.0696ZM283.182 30.4622C284.379 30.8775 285.884 31.2855 287.686 31.6886L288.122 29.7368C286.362 29.343 284.937 28.9541 283.837 28.5726L283.182 30.4622ZM287.684 31.6882C290.755 32.3808 293.241 33.2032 295.164 34.1425L296.042 32.3454C293.934 31.316 291.288 30.4508 288.124 29.7372L287.684 31.6882ZM295.164 34.1425C297.069 35.0729 298.417 36.1798 299.28 37.4322L300.927 36.298C299.82 34.6909 298.168 33.3838 296.042 32.3454L295.164 34.1425ZM299.28 37.4322C300.13 38.6675 300.58 40.1954 300.58 42.0682H302.58C302.58 39.8629 302.045 37.922 300.927 36.298L299.28 37.4322ZM300.58 42.0682C300.58 43.5864 300.26 44.9529 299.634 46.1852L301.417 47.0917C302.196 45.5584 302.58 43.878 302.58 42.0682H300.58ZM299.628 46.1974C299.021 47.4322 298.128 48.51 296.928 49.4313L298.146 51.0176C299.571 49.9232 300.67 48.6104 301.423 47.0796L299.628 46.1974ZM296.93 49.4297C295.748 50.3324 294.31 51.0567 292.599 51.59L293.194 53.4994C295.092 52.9078 296.748 52.0852 298.144 51.0192L296.93 49.4297ZM292.607 51.5876C290.936 52.0933 289.032 52.3533 286.885 52.3533V54.3533C289.191 54.3533 291.294 54.0743 293.186 53.5019L292.607 51.5876ZM286.885 52.3533C283.648 52.3533 280.979 51.776 278.835 50.6714L277.919 52.4493C280.415 53.7354 283.418 54.3533 286.885 54.3533V52.3533ZM278.835 50.6714C276.647 49.5444 275.035 48.1109 273.949 46.3869L272.257 47.4526C273.562 49.5255 275.466 51.1857 277.919 52.4493L278.835 50.6714ZM273.949 46.3869C272.848 44.6374 272.31 42.8167 272.31 40.908H270.31C270.31 43.2181 270.968 45.4052 272.257 47.4526L273.949 46.3869ZM271.31 41.908H277.849V39.908H271.31V41.908ZM276.851 40.9606C276.953 42.9074 277.525 44.5615 278.649 45.8263L280.144 44.4976C279.393 43.653 278.933 42.4711 278.848 40.8555L276.851 40.9606ZM278.656 45.8346C279.713 46.9974 281.011 47.8294 282.53 48.3271L283.153 46.4265C281.953 46.0336 280.954 45.3889 280.136 44.4893L278.656 45.8346ZM282.545 48.3318C283.994 48.7815 285.442 49.0096 286.885 49.0096V47.0096C285.655 47.0096 284.408 46.8157 283.138 46.4217L282.545 48.3318ZM286.885 49.0096C288.746 49.0096 290.367 48.7658 291.714 48.2374L290.984 46.3755C289.941 46.7847 288.586 47.0096 286.885 47.0096V49.0096ZM291.708 48.2398C293.054 47.7222 294.148 46.9825 294.918 45.9837L293.335 44.7621C292.84 45.4039 292.082 45.9532 290.99 46.3731L291.708 48.2398ZM294.918 45.9837C295.689 44.985 296.076 43.8318 296.076 42.5604H294.076C294.076 43.3983 293.83 44.1201 293.335 44.7621L294.918 45.9837Z" fill="#140D0D"/>
</svg>
